<?xml version="1.0" encoding="utf-8"?>
<!-- Generator: Adobe Illustrator 16.0.0, SVG Export Plug-In . SVG Version: 6.00 Build 0)  -->
<!DOCTYPE svg PUBLIC "-//W3C//DTD SVG 1.1//EN" "http://www.w3.org/Graphics/SVG/1.1/DTD/svg11.dtd">
<svg version="1.1" id="Layer_1" xmlns="http://www.w3.org/2000/svg" xmlns:xlink="http://www.w3.org/1999/xlink" x="0px" y="0px"
	 width="208px" height="44.547px" viewBox="0 0 208 44.547" enable-background="new 0 0 208 44.547" xml:space="preserve">
<path fill="#353535" d="M23.663,1.817c-11.184,0-20.25,9.066-20.25,20.25s9.066,20.25,20.25,20.25s20.25-9.065,20.25-20.25
	S34.847,1.817,23.663,1.817z M20.719,31.614h-0.03l0.015-0.025l-8.401-14.514l-0.004,0.006l-1.013-1.755h2.004h0.022l-0.011,0.02
	l8.4,14.513v-0.002l0.269,0.468l0.245,0.422v0.001l0.5,0.866H20.719z M23.591,31.614h-0.03l0.015-0.025l-8.401-14.513l-0.003,0.006
	l-1.014-1.755h2.005h0.022l-0.011,0.02l8.916,15.401l-0.001,0.001l0.5,0.866L23.591,31.614L23.591,31.614z M26.384,31.641
	l-9.42-16.315h18.84L26.384,31.641z"/>
<g>
	<path fill="#353535" d="M72.669,37.689h-6.723l-8.643-24.693h6.768l5.351,18.062l4.985-18.062h6.768L72.669,37.689z"/>
	<path fill="#353535" d="M98.417,37.689c-0.594-0.729-0.731-1.828-0.731-3.108c-2.241,2.332-4.756,3.521-7.5,3.521
		c-4.116,0-7.5-2.287-7.5-7.088c0-4.481,2.378-6.586,7.271-7.455l2.561-0.457c3.201-0.549,5.122-0.272,5.122-2.88
		c0-1.646-1.235-2.469-3.704-2.469c-3.155,0-4.208,0.823-4.527,3.384h-6.174c0.412-5.716,3.887-8.551,10.564-8.551
		c6.677,0,10.106,2.561,10.106,7.591v13.719c0,1.279,0.32,1.967,1.463,3.019v0.776H98.417z M97.639,26.03
		c-0.732,0.364-1.006,0.456-2.698,0.776l-2.195,0.41c-2.652,0.504-3.659,1.189-3.659,3.064c0,1.83,1.326,2.652,3.476,2.652
		c3.247,0,5.076-2.104,5.076-5.808V26.03z"/>
	<path fill="#353535" d="M121.739,18.941c-3.75,0-5.625,1.875-5.625,5.624v13.125h-6.402V12.997h6.402v4.847
		c1.373-3.338,3.934-5.259,6.86-5.259c0.183,0,0.411,0,0.776,0.045v6.494C122.883,18.987,122.426,18.941,121.739,18.941z"/>
	<path fill="#353535" d="M127.685,37.689V12.997h6.401v24.692H127.685z M127.776,10.024V3.622h6.402v6.402H127.776z"/>
	<path fill="#353535" d="M154.347,37.689c-0.595-0.729-0.731-1.828-0.731-3.108c-2.24,2.332-4.757,3.521-7.5,3.521
		c-4.115,0-7.5-2.287-7.5-7.088c0-4.481,2.379-6.586,7.271-7.455l2.561-0.457c3.202-0.549,5.122-0.272,5.122-2.88
		c0-1.646-1.234-2.469-3.703-2.469c-3.154,0-4.207,0.823-4.527,3.384h-6.174c0.412-5.716,3.888-8.551,10.563-8.551
		s10.106,2.561,10.106,7.591v13.719c0,1.279,0.319,1.967,1.463,3.019v0.776H154.347z M153.568,26.03
		c-0.731,0.364-1.006,0.456-2.696,0.776l-2.195,0.41c-2.652,0.504-3.659,1.189-3.659,3.064c0,1.83,1.325,2.652,3.478,2.652
		c3.246,0,5.074-2.104,5.074-5.808L153.568,26.03L153.568,26.03z"/>
	<path fill="#353535" d="M181.329,37.689V22.462c0-2.927-1.373-4.436-4.115-4.436c-3.11,0-5.168,1.92-5.168,4.847v14.816h-6.402
		V12.997h6.402v3.567c1.828-2.744,4.07-3.979,7.408-3.979c5.258,0,8.276,3.109,8.276,8.551v16.554H181.329z"/>
	<path fill="#353535" d="M200.765,37.874c-4.207,0-6.267-1.603-6.267-5.488V17.752h-3.153V13.5h3.153V6.869h6.402V13.5h3.566v4.253
		h-3.566v12.896c0,2.194,0.412,2.699,2.104,2.699c0.457,0,0.824-0.046,1.463-0.138v4.479
		C203.325,37.736,202.183,37.874,200.765,37.874z"/>
</g>
</svg>
